<?xml version="1.0" standalone="yes"?>
<svg name="importedvase">
<defs>
  <g id="importedvase">
<path style="fill:#e4cded; stroke:none;" d="M111 11L120 12L111 11z"/>
<path style="fill:#b2adb4; stroke:none;" d="M120 11L132 12L120 11z"/>
<path style="fill:#87658f; stroke:none;" d="M132 11C142.512 15.411 160.566 12 172 12C161.488 7.58902 143.434 11 132 11z"/>
<path style="fill:#a793af; stroke:none;" d="M172 11L178 12L172 11z"/>
<path style="fill:#cdb6d9; stroke:none;" d="M178 11L184 12L178 11z"/>
<path style="fill:#e4cded; stroke:none;" d="M94 12L99 13L94 12z"/>
<path style="fill:#a793af; stroke:none;" d="M99 12L106 13L99 12z"/>
<path style="fill:#93699f; stroke:none;" d="M106 12L111 13L106 12z"/>
<path style="fill:#59366a; stroke:none;" d="M107 13C112.707 15.3949 120.846 14 127 14L170 14C164.293 11.6051 156.154 13 150 13L107 13z"/>
<path style="fill:#403057; stroke:none;" d="M117 12C122.951 14.4972 131.58 13 138 13L182 13C176.049 10.5028 167.42 12 161 12L117 12z"/>
<path style="fill:#573873; stroke:none;" d="M170 13C177.083 15.9719 189.234 14.9991 197 15C191.139 8.83871 177.754 13 170 13z"/>
<path style="fill:#a793af; stroke:none;" d="M195 12L200 13L195 12z"/>
<path style="fill:#cdb6d9; stroke:none;" d="M200 12L203 13L200 12z"/>
<path style="fill:#b2adb4; stroke:none;" d="M85 13L89 14L85 13z"/>
<path style="fill:#635e66; stroke:none;" d="M89 13L98 14L89 13z"/>
<path style="fill:#403057; stroke:none;" d="M62 17C66.21 18.7626 70.5934 17.3107 75 16.9089L107 14C95.5839 9.2114 74.1118 15.4613 62 17M195 13C198.36 15.2957 202.026 14.9974 206 15C202.64 12.7043 198.974 13.0026 195 13z"/>
<path style="fill:#4e4857; stroke:none;" d="M204 13L211 14L204 13z"/>
<path style="fill:#a793af; stroke:none;" d="M211.667 13.3333L212.333 13.6667L211.667 13.3333z"/>
<path style="fill:#b2adb4; stroke:none;" d="M213 13L216 14L213 13z"/>
<path style="fill:#d3d1d4; stroke:none;" d="M216.667 13.3333L217.333 13.6667L216.667 13.3333M74 14L77 15L74 14z"/>
<path style="fill:#93699f; stroke:none;" d="M77 14L80 15L77 14z"/>
<path style="fill:#635e66; stroke:none;" d="M80 14L83 15L80 14z"/>
<path style="fill:#87658f; stroke:none;" d="M103 14C110.649 17.2096 122.712 15 131 15C123.351 11.7904 111.288 14 103 14z"/>
<path style="fill:#a793af; stroke:none;" d="M103 15L106 17C103.266 20.2848 94.3641 24.9477 91 21L85 24C92.2111 27.2372 101.267 26.4333 109 27.1698C124.398 28.636 139.616 27.7131 155 27.0394C161.693 26.7463 170.486 28.151 176.718 25.1073L182 19L178 18L182 16C175.753 12.2579 166.07 14 159 14L103 15z"/>
<path style="fill:#7b4b8c; stroke:none;" d="M179 14L187 15L179 14z"/>
<path style="fill:#2a2630; stroke:none;" d="M206 14L206 16L225 16C219.192 13.3929 212.247 14 206 14z"/>
<path style="fill:#4e4857; stroke:none;" d="M219 14L222 15L219 14z"/>
<path style="fill:#a793af; stroke:none;" d="M222.667 14.3333L223.333 14.6667L222.667 14.3333z"/>
<path style="fill:#b2adb4; stroke:none;" d="M224 14L227 15L224 14M67.6667 15.3333L68.3333 15.6667L67.6667 15.3333z"/>
<path style="fill:#93699f; stroke:none;" d="M69 15L72 16L69 15z"/>
<path style="fill:#4e4857; stroke:none;" d="M85 15L90 16L85 15z"/>
<path style="fill:#93699f; stroke:none;" d="M60 20C66.303 23.3519 85.0722 27.6622 90 21C92.9951 25.4579 104.233 21.4889 106 17C94.0148 11.2336 72.3132 16.5317 60 20z"/>
<path style="fill:#87658f; stroke:none;" d="M92 15L96 16L92 15z"/>
<path style="fill:#93699f; stroke:none;" d="M178 17L182 18L179 19C179.194 22.1743 178.895 23.5598 176 25C187.942 30.0109 207.735 24.3109 220 22L220 18L228 18L214 16.9105C202.697 16.1365 188.748 12.4644 178 17z"/>
<path style="fill:#87658f; stroke:none;" d="M195 15L201 16L195 15z"/>
<path style="fill:#4e4857; stroke:none;" d="M201 15L206 16L201 15M214 16C220.477 18.7179 230.926 17.9992 238 18C231.03 13.8237 221.732 15.9991 214 16z"/>
<path style="fill:#93699f; stroke:none;" d="M228.667 15.3333L229.333 15.6667L228.667 15.3333z"/>
<path style="fill:#b2adb4; stroke:none;" d="M230.667 15.3333L231.333 15.6667L230.667 15.3333z"/>
<path style="fill:#d3d1d4; stroke:none;" d="M232.667 15.3333L233.333 15.6667L232.667 15.3333z"/>
<path style="fill:#cdb6d9; stroke:none;" d="M61.6667 16.3333L62.3333 16.6667L61.6667 16.3333z"/>
<path style="fill:#87658f; stroke:none;" d="M63 16L66 17L63 16M210 16L214 17L210 16z"/>
<path style="fill:#a793af; stroke:none;" d="M235 16L238 17L235 16z"/>
<path style="fill:#d3d1d4; stroke:none;" d="M238.667 16.3333L239.333 16.6667L238.667 16.3333z"/>
<path style="fill:#a793af; stroke:none;" d="M57.6667 17.3333L58.3333 17.6667L57.6667 17.3333z"/>
<path style="fill:#4e4857; stroke:none;" d="M57 20L66 19C62.6395 17.2268 59.363 16.6974 57 20z"/>
<path style="fill:#87658f; stroke:none;" d="M234 18L243 19C239.999 17.2896 237.371 17.6451 234 18z"/>
<path style="fill:#a793af; stroke:none;" d="M240 17L243 18L240 17M54.6667 18.3333L55.3333 18.6667L54.6667 18.3333z"/>
<path style="fill:#635e66; stroke:none;" d="M50 23L58 23L57 18C53.6578 19.0705 51.8332 19.9767 50 23z"/>
<path style="fill:#a793af; stroke:none;" d="M220 18L220 22L223 22C220.77 39.2562 207.362 52.4509 207 70C214.087 59.7093 221.542 42.8491 225.443 30.9105C227.477 24.687 227.402 18.8448 220 18z"/>
<path style="fill:#b89cc5; stroke:none;" d="M224 18C229.06 25.799 223.86 30.7482 221.184 38.0394C215.168 54.427 205.86 68.6445 202.285 86C198.127 106.192 193.666 125.207 195.09 146C197.121 175.66 207.532 203.366 214 232C217.261 232 217.536 231.857 217 234L220 233C216.058 227.32 212.41 217.785 211.194 210.94C210.315 205.986 210.95 198.739 205 197C203.061 172.468 195.657 148.894 197.043 124L202.482 103.996C205.447 90.7603 208.262 77.4488 213.659 64.9105L230.484 35.1698C232.485 30.9762 236.838 26.932 232 23L233 21L228 20L234 19L224 18z"/>
<path style="fill:#a793af; stroke:none;" d="M238 19C240.393 20.0351 245.404 19.9796 246.387 22.9383C247.527 26.3686 240.719 28.8004 239.124 31.1288C234.034 38.5617 231.186 47.0021 231 56C222.092 59.0972 218.779 75.9335 216.576 84C207.977 115.489 211.467 144.169 214 176C217.819 168.804 213.906 158.731 213.17 151C211.823 136.861 212.836 121.911 215.46 108C218.642 91.1282 224.131 74.121 232.309 59C237.635 49.1524 248.771 35.7839 251.033 25.0154C252.59 17.6064 242.235 18.6779 238 19z"/>
<path style="fill:#b2adb4; stroke:none;" d="M51 19L52 20L51 19z"/>
<path style="fill:#87658f; stroke:none;" d="M58 19L58 23C54.8947 21.7152 53.2248 22.0805 50 23L51 20L48 25C60.8401 34.9224 69.643 59.0352 73.7855 74C78.9961 92.8235 85.5069 111.157 85.9853 131L80 192C83.3588 185.011 83.1077 176.506 84.3248 169C87.4809 149.538 88.8319 128.644 85.6968 109C82.6904 90.1625 76 73.2651 76 54L78 56C80.3338 48.8972 70.358 43.4231 67 38L70 39L70 35C65.4713 32.2909 66.7681 25.3866 70 30C74.8828 22.681 65.3847 21.4256 60 21L62 20L58 19z"/>
<path style="fill:#cdb6d9; stroke:none;" d="M228 19L233 21L232 23C235.886 27.9552 231.619 31.2112 229.768 36.0895L210.383 71.0895L202.482 102.999L197.104 122C194.761 147.203 201.853 172.23 205 197C215.678 203.465 208.441 225.21 221 230C219.213 225.21 220.859 219.688 216 217C216.297 214.032 216.334 211.969 214 210L215 206C212.305 204.047 212.659 201.175 212 198L215 199L215 192L209 190L211 197C202.65 189.312 205.044 175.258 203.816 165C201.014 141.597 200.275 124.311 205.332 101C207.214 92.324 208.844 81.8401 215 75L206.429 107.004C203.899 123.895 205.664 143.069 207 160C209.652 153.499 206.837 142.233 207.015 135C207.311 122.908 209.99 108.832 212.518 97L223.434 65.7145L227.554 50.6659L246 22C240.037 19.424 234.424 19.0007 228 19z"/>
<path style="fill:#d3d1d4; stroke:none;" d="M248.667 19.3333L249.333 19.6667L248.667 19.3333z"/>
<path style="fill:#b2adb4; stroke:none;" d="M243 20L246 22L243 28C247.491 25.6224 248.044 21.9495 243 20z"/>
<path style="fill:#d3d1d4; stroke:none;" d="M48 22L49 23L48 22z"/>
<path style="fill:#7b4b8c; stroke:none;" d="M194 26L195 28C182.152 28 169.647 27.5474 157 30L158 33L128 30L141 29C133.816 25.9857 123.732 28.44 116 27.9105L71 23L71 30L70 27C64.2766 27.9587 65.0955 33.2414 70 35L70 39L67 38C70.0201 45.0668 77.2947 48.1669 79 56L76 54L75 70L77 68L77 70L78 68L81 83C82.9945 78.2469 82.1736 71.9296 81 67C86.6936 72.3598 86.0147 78.3904 88.8542 84.9815L95.581 94.054C102.538 115.921 96.9038 136.167 95 158L93 143C86.5966 158.066 81.7108 175.445 81 192L77 192L74 213L79 207L80 217C84.1948 215.314 84.017 212.057 85 208C87.6206 216.869 80.5354 223.588 83 232L81 236L84 232L86 233C90.7642 224.219 98.4773 217.899 104.906 210.396C108.356 206.369 109.568 201.571 115 200C115.613 193.704 121.227 191.643 127 192C129.804 189.875 132.533 190.012 136 190L136 181C138.697 180.422 138.789 179.739 139 177L148 185C149.588 182.352 150.929 181.894 154 182C151.537 178.622 147.817 179.847 144 180L146 176L156 177L152 173C159.995 174.577 164.017 175.867 172 173L171 170C173.873 167.099 169.74 163.047 168.345 159.92C164.254 150.748 162.622 141.072 162 131L166 132L168 126C169.589 129.921 168.506 134.415 173 136C171.974 142.66 172.978 153.739 176.943 159.37C181.896 166.406 188.261 169.131 191 178C193.943 170.986 190.589 162.283 190.09 155C189.288 143.307 190.665 130.588 192.289 119.001C194.825 100.914 197.728 81.1624 204.311 64C209.246 51.1354 218.866 35.7282 220 22L194 26z"/>
<path style="fill:#87658f; stroke:none;" d="M220 22C216.57 46.871 197.54 67.8407 197 94L206.639 63.0038C211.468 49.9008 220.205 35.8859 222 22L220 22z"/>
<path style="fill:#93699f; stroke:none;" d="M222 22L213 48C217.585 41.9749 224.762 29.7041 222 22M48 25C52.7273 41.0711 65.5445 54.4944 72 70C73.7162 65.5475 70.7756 61.9868 68.8889 58C64.6628 49.07 56.9307 29.6254 48 25z"/>
<path style="fill:#573873; stroke:none;" d="M141 28L154 29L153 33L158 33L157 30L195 28C179.802 21.6229 157.153 28 141 28z"/>
<path style="fill:#87658f; stroke:none;" d="M181 26L194 27L181 26M150 27L160 28L150 27z"/>
<path style="fill:#403057; stroke:none;" d="M128 29C133.388 32.2274 151.397 36.8413 154 29L128 29z"/>
<path style="fill:#59366a; stroke:none;" d="M137 31C139.959 35.564 147.087 34 152 34L137 31z"/>
<path style="fill:#cdb6d9; stroke:none;" d="M52 34L53 35L52 34z"/>
<path style="fill:#b89cc5; stroke:none;" d="M230 45L224 64L231 56L232 45L230 45z"/>
<path style="fill:#59366a; stroke:none;" d="M122 60C123.369 62.0609 123.971 62.7782 123 65C127.114 66.5507 125.588 60.9458 122 60z"/>
<path style="fill:#403057; stroke:none;" d="M122 61L125 65L124 61L122 61z"/>
<path style="fill:#93699f; stroke:none;" d="M207 61C199.383 81.1831 191.837 106.339 191.259 128L193 154C196.279 146.185 193.291 135.405 194.285 127L204.035 79.0394C205.195 73.2976 208.807 66.8772 207 61z"/>
<path style="fill:#87658f; stroke:none;" d="M101 65L101 69L98 68C99.604 83.6761 107.429 97.468 107.429 114L106.91 144C106.428 150.575 103.734 155.724 107 162C109.292 156.538 108 148.887 108 143L109.892 117.985L109 96C106.633 93.2404 106.379 91.2678 108 88L104 82L109 85L105 75C107.17 75.5424 106.902 75.8396 108 74C109.647 76.9935 110.712 78.9095 114 80L112 73L108 72L109 67L104 65L101 65z"/>
<path style="fill:#573873; stroke:none;" d="M81 67C86.1258 94.6097 89 123.823 89 152C92.2597 149.649 91.9865 146.825 92 143L94 158C102.164 144.105 99.7824 123.764 97.1944 108.94L95.3704 92.1945L89.2176 84.9954C85.9795 78.8956 87.9813 71.0132 81 67z"/>
<path style="fill:#635e66; stroke:none;" d="M76 68L85 108C89.4199 96.6761 79.0988 79.9292 79 68C77.3874 68.9816 77.5069 69.1104 76 68z"/>
<path style="fill:#d3d1d4; stroke:none;" d="M72.3333 70.6667L72.6667 71.3333L72.3333 70.6667z"/>
<path style="fill:#403057; stroke:none;" d="M136 70L138 72L138 70L136 70z"/>
<path style="fill:#d3d1d4; stroke:none;" d="M73.3333 73.6667L73.6667 74.3333L73.3333 73.6667z"/>
<path style="fill:#93699f; stroke:none;" d="M108 74L105 75L109 85L104 82L108 88C105.952 91.0435 105.979 93.7009 109 96L109.782 118.961L108 162L105 160C105 171.537 103.928 181.772 110 192L115 191L111 180L108 182L110 131L113 132L112 108C121.942 110.734 123.614 109.439 126 121C128.485 114.894 123.879 107.925 121.434 102.424C116.617 91.5905 115.607 83.9014 108 74z"/>
<path style="fill:#e4cded; stroke:none;" d="M213 75C208.214 92.365 201.346 108.676 200.09 127C199.154 140.645 202.221 152.681 203.816 166C204.875 174.847 202.206 191.64 211 197L207 184C209.396 187.824 210.208 191.207 215 192L215 199L212 198C212.476 201.432 211.118 205.164 215 206L214 210C215.797 212.288 216.159 214.09 216 217C220.265 220.641 218.568 225.296 221 230L217 229C217.654 232.27 223.148 235.213 220 236C223.7 239.935 223.265 247.744 225.1 253.001C231.234 270.58 234.445 288.35 246 303L248 303C250.188 298.695 251.941 295.962 252 291C257.709 296.72 255.884 304.844 258 312C259.859 307.561 258.181 302.681 258.011 298C257.326 279.206 248.642 259.44 239.457 243.424C236.133 237.628 232.95 226.503 226 225L221 214L225 219C228.058 213.661 221.921 207.417 219.424 202.871C214.968 194.76 213.271 182.963 211.005 174C205.781 153.338 203.243 129.422 206.429 108.001L215 75L213 75z"/>
<path style="fill:#d3d1d4; stroke:none;" d="M75.3333 78.6667L75.6667 79.3333L75.3333 78.6667z"/>
<path style="fill:#573873; stroke:none;" d="M190 80L186 94C180.871 91.8726 177.622 91.8775 173 95L176 98L174 105L177 105L177 107L170 106L173 113L175 112L177 114L175 109L179 108L178 111L181 117L179 115L177.418 135.09L178 144L184 160C191.203 156.431 186.719 150.151 189 144L186 145L188.248 119.91C189.721 113.245 192.679 109.137 191 102C195.365 98.2438 195.953 85.6316 196 80L194 83L190 80z"/>
<path style="fill:#d3d1d4; stroke:none;" d="M76.3333 81.6667L76.6667 82.3333L76.3333 81.6667z"/>
<path style="fill:#2a2630; stroke:none;" d="M139 81L139 83L141 83L139 81z"/>
<path style="fill:#cdb6d9; stroke:none;" d="M77.3333 84.6667L77.6667 85.3333L77.3333 84.6667z"/>
<path style="fill:#d3d1d4; stroke:none;" d="M78.3333 88.6667L78.6667 89.3333L78.3333 88.6667z"/>
<path style="fill:#a793af; stroke:none;" d="M79 90L79 93L79 90z"/>
<path style="fill:#b2adb4; stroke:none;" d="M214 90L212 101C214.415 97.6043 215.645 93.9652 214 90z"/>
<path style="fill:#d3d1d4; stroke:none;" d="M219.333 91.6667L219.667 92.3333L219.333 91.6667M79.3333 93.6667L79.6667 94.3333L79.3333 93.6667M218.333 94.6667L218.667 95.3333L218.333 94.6667z"/>
<path style="fill:#cdb6d9; stroke:none;" d="M80.3333 96.6667L80.6667 97.3333L80.3333 96.6667z"/>
<path style="fill:#403057; stroke:none;" d="M161 97L161 100L163 97L161 97z"/>
<path style="fill:#59366a; stroke:none;" d="M135 98L135 100L138 100L138 98L135 98z"/>
<path style="fill:#d3d1d4; stroke:none;" d="M217.333 99.6667L217.667 100.333L217.333 99.6667z"/>
<path style="fill:#b2adb4; stroke:none;" d="M81.3333 100.667L81.6667 101.333L81.3333 100.667z"/>
<path style="fill:#d3d1d4; stroke:none;" d="M216 103L216 106L216 103z"/>
<path style="fill:#a793af; stroke:none;" d="M82 104L82 107L82 104z"/>
<path style="fill:#b89cc5; stroke:none;" d="M211 106L209 144C211.835 137.244 213.777 112.68 211 106z"/>
<path style="fill:#d3d1d4; stroke:none;" d="M82.3333 107.667L82.6667 108.333L82.3333 107.667z"/>
<path style="fill:#403057; stroke:none;" d="M156 107L156 109L158 109L158 107L156 107z"/>
<path style="fill:#cdb6d9; stroke:none;" d="M215 107L215 110L215 107z"/>
<path style="fill:#635e66; stroke:none;" d="M86 108L86 162C89.5092 157.54 88.9996 151.448 89 146C89.0008 134.043 90.7552 119.227 86 108z"/>
<path style="fill:#a793af; stroke:none;" d="M112 108L113 132L110 131L108 182L111 180L113 190C116.918 189.061 119.005 187.498 121 184L124 185C127.775 167.205 130.378 148.257 129.09 130C128.735 124.976 126.6 112.246 122.272 109.042L112 108M83 109L83 112L83 109z"/>
<path style="fill:#d3d1d4; stroke:none;" d="M83 112L83 115L83 112M84 118L84 123L84 118z"/>
<path style="fill:#cdb6d9; stroke:none;" d="M213 120L213 123L213 120z"/>
<path style="fill:#b2adb4; stroke:none;" d="M208 122C207.53 144.793 208.505 163.845 214.461 186C216.116 192.155 216.034 203.613 223 206L217.375 191L211.282 158C209.857 147.42 211.995 131.521 208 122z"/>
<path style="fill:#a793af; stroke:none;" d="M85 125L85 141C86.8123 136.681 86.8123 129.319 85 125M194 125C194 143.822 193.892 163.261 197.259 181.83C199.409 193.686 203.898 203.632 204 216C208.021 216.525 206.624 220.787 207.472 224L213.806 251.083C214.676 254.609 211.644 260 217 260C217 266.819 219.075 291.976 226 294C227.332 307.362 235.8 318.215 241.201 330.004C243.536 335.101 243.504 341.456 248.263 345.228C252.521 348.602 257.607 347.15 262 345L256 353L259 354L259 363L261 356L263 356L262 362L264 355L266 363L267 358L268 371C272.296 360.762 269.63 340.957 268.285 330C263.881 294.144 253.366 256.472 235 225C233.76 232.411 242.621 246.075 245.769 253C253.509 270.026 260.043 289.583 263.386 308C264.766 315.603 267.232 334.368 257 336L256 328C248.995 331.638 246.771 322.108 243.643 317.424C234.538 303.795 227.233 291.581 225 275L222 275C221.982 269.832 221.335 261.299 217 258L215 240L218 240L218 232L214 232L199.26 175L195.039 144C194.776 137.997 196.345 130.588 194 125z"/>
<path style="fill:#87658f; stroke:none;" d="M168 126L166 132L162 131C162.159 137.965 162.53 147.47 165.129 153.91C166.931 158.376 172.826 165.443 171 170L172 173C164.049 175.123 159.905 174.029 152 173L156 176L146 176L144 179L154 182C150.739 181.611 148.973 181.689 148 185L139 177L136 181L136 190C132.694 190.003 129.273 189.399 127 192C121.217 191.406 114.41 193.123 115 200C109.314 200.905 108.326 205.572 104.906 209.6C98.7125 216.893 89.0715 223.64 86 233L84 232L81 236L83 232L86 208L80 217L80 207L74 213L77 199L73.5085 206.715L59.1605 244.985L41.0177 276.015C27.2255 312.692 29.6853 345.982 30 384L32 375C23.6663 364 33.1092 341.782 31 329C35.7301 325.936 35.1713 317.978 34 313C36.3565 313.027 36.3338 312.42 37 310L42 313L43 310C43.7982 312.359 43.9883 312.557 42 314L43 317L45 317L48 310C50.2668 310.911 51.5345 311.65 49 313L51 315L51 317L49 319C51.5668 322.613 50.1986 327.054 49 331L51 332L52 330L54 341L62 341C59.6298 348.096 66.3709 352.546 66 360L71 356L74 358L73 366C77.6762 364.318 80.6347 362.425 83 358L76 351L68 355C69.0561 351.357 71.0041 345.985 66 345L67 341L64 343L62.1836 326.263L56 316C63.2564 314.453 58.7287 303.687 58 299L61 299C61.6631 294.188 63.3867 288.042 66 284L66 282L64 282L66 267L70 269C73.9718 262.714 76.2868 255.972 82 251C78.3147 244.196 85.4436 238.682 87 232L88 235L89 232L91 234C94.0538 231.095 93.9861 228.049 94 224C101.262 223.764 110.139 210.086 112 203L118 204L123 216C128.207 217.645 127.866 222.592 130 227L132 225L135 228L135 224L138 234L141 236C144.043 236.328 144.789 237.211 146 240L150 240L149 244C143.06 244.195 134.582 258.497 139 262C141.205 257.739 143.634 257.986 148 259L145 252L148 253L146 249L147 248C149.142 249.706 151.735 251.16 151 254C157.706 256.2 153.833 248.739 152 246C161.525 246.684 163.629 247.152 173 244L173 239L185 241L184 244L189 243L192 248L194 242L190 239L197 241L198 236C195.4 235.577 193.822 235.064 192 237L191 227L189 230L188 227L184 231L190 238L187 237L186 240L182 239L183 230L179 232L178 222L168 227L164 216L166 216L164 209C161.13 208.12 148.312 199.682 152.023 195.944C155.072 192.873 164.802 196.404 168.999 195.79C179.675 194.23 182.579 182.15 184 173L188 173C187.106 178.509 187.597 184.935 194 186L192 131C186.059 145.127 192 163.291 192 178C183.832 162.324 172.2 155.653 173 136C168.967 133.582 170.366 129.595 168 126z"/>
<path style="fill:#e4cded; stroke:none;" d="M84 141L84 148C85.0595 145.466 85.0595 143.534 84 141z"/>
<path style="fill:#59366a; stroke:none;" d="M187 146L187 151L189 151L189 146L187 146z"/>
<path style="fill:#b2adb4; stroke:none;" d="M84 148L84 152L84 148z"/>
<path style="fill:#cdb6d9; stroke:none;" d="M213 148L213 154C213.951 151.715 213.951 150.285 213 148z"/>
<path style="fill:#93699f; stroke:none;" d="M194 155L194 186C188.062 184.203 187.585 178.515 188 173L184 173C181.658 182.398 179.367 194.184 168 195.789C163.622 196.408 155.471 192.622 151.912 195.343C146.698 199.328 160.744 208.45 164 209L166 216L164 216L168 227L178 222C177.562 225.793 177.557 228.422 179 232L183 230L182 239L186 240L187 237L190 238C188.616 234.762 187.046 232.777 184 231C185.785 228.386 186.645 227.777 189 230L190 227L191 237L198 236L197 241L190 239L194 242L192 248L189 243L184 244L185 241L173 239L173 244L162.715 247.897L152 246C153.813 249.968 156.471 253.285 151 255L153 253L147 248L148 253L145 252L148 259C143.581 257.44 140.532 256.968 139 262C135.684 257.918 143.371 244.429 149 244L150 240L146 240C145.052 236.898 144.251 236.134 141 236L138 234L136 224L135 228C132.757 226.488 132.423 226.05 130 227C128.321 222.401 128.506 216.956 123 216L118 204L112 203C109.238 209.578 101.094 223.463 94 224C93.9887 226.767 94.2001 233.738 90 232L89 235L88 232C84.2814 236.958 77.8933 245.099 82 251C75.8798 254.781 72.7935 262.572 70 269L66 267C63.9449 270.239 61.9039 279.852 66 282L66 284C62.7972 286.787 61.3484 294.78 61 299L58 299C58.7157 304.874 62.2616 312.054 56 316L61.6914 326.263L64 343L67 341L66 345C69.484 347.517 68.5591 351.11 68 355L76 351L80 358C86.7693 356.889 94.9669 343.397 102 348L106 348L116.269 321C117.703 317.733 119.999 313.73 117 311C120.026 307.63 122.406 304.657 122 300C133.772 298.678 136.53 275.534 145 278L148 272L145 273C147.322 269.298 149.003 267.167 147 263C152.053 263.439 160.33 255.714 162 251C165.066 250.503 166.032 249.964 167 247C171.221 249.245 173.673 248.545 178 247L174 252C180.142 252.268 185.243 255.981 191 253L187 259C189.42 260.382 190.061 261.363 191 264L197 264C196.183 268.764 197.592 271.098 202 273L200 277C211.229 283.164 216.218 305.569 220.046 317C221.536 321.449 221.091 326.883 225 330C224.538 326.238 223.542 323.268 227 321L227 332L229 323L234 325L233 328C243.226 340.964 249.036 362.097 253 378C258.681 375.478 261.649 356.718 256 353C259.27 351.031 260.602 348.502 262 345C257.702 346.575 253.282 348.107 249.13 345.192C243.98 341.577 243.839 335.276 241.648 330.004C236.582 317.814 228.282 307.426 226 294C219.089 289.787 217.022 267.854 217 260C212.081 259.361 215.174 254.476 214.25 251.083L207.833 224C206.827 220.68 208.006 216 204 216C203.965 203.259 199.409 193.114 197.259 180.91L194 155z"/>
<path style="fill:#b2adb4; stroke:none;" d="M83 156L83 160L83 156z"/>
<path style="fill:#cdb6d9; stroke:none;" d="M214 157L214 162L214 157z"/>
<path style="fill:#d3d1d4; stroke:none;" d="M82.3333 162.667L82.6667 163.333L82.3333 162.667z"/>
<path style="fill:#b2adb4; stroke:none;" d="M82.3333 164.667L82.6667 165.333L82.3333 164.667z"/>
<path style="fill:#d3d1d4; stroke:none;" d="M215 165L215 168L215 165M81.3333 168.667L81.6667 169.333L81.3333 168.667z"/>
<path style="fill:#a793af; stroke:none;" d="M81.3333 170.667L81.6667 171.333L81.3333 170.667z"/>
<path style="fill:#b89cc5; stroke:none;" d="M216 170C211.815 185.04 221.306 206.452 228.157 219.711C230.564 224.368 232.501 230.11 237 233L222.228 193L216 170z"/>
<path style="fill:#b2adb4; stroke:none;" d="M80 173L80 176L80 173M79.3333 178.667L79.6667 179.333L79.3333 178.667z"/>
<path style="fill:#93699f; stroke:none;" d="M79 180C74.236 212.379 49.8168 239.181 43 271C48.9155 267.372 50.7517 258.839 54.1983 253.09C61.9062 240.231 65.8045 225.624 71.0718 211.464C73.5524 204.795 76.6137 199.542 77 192L80 192C80.034 187.896 81.4023 183.448 79 180z"/>
<path style="fill:#b2adb4; stroke:none;" d="M78 181L78 184L78 181M207 184C207.438 186.743 207.779 188.325 210 190L207 184M77.3333 185.667L77.6667 186.333L77.3333 185.667z"/>
<path style="fill:#a793af; stroke:none;" d="M76.3333 189.667L76.6667 190.333L76.3333 189.667z"/>
<path style="fill:#d3d1d4; stroke:none;" d="M221.333 190.667L221.667 191.333L221.333 190.667z"/>
<path style="fill:#b2adb4; stroke:none;" d="M75.3333 192.667L75.6667 193.333L75.3333 192.667z"/>
<path style="fill:#a793af; stroke:none;" d="M73.3333 198.667L73.6667 199.333L73.3333 198.667M71.3333 203.667L71.6667 204.333L71.3333 203.667z"/>
<path style="fill:#cdb6d9; stroke:none;" d="M221 214L226 225L230 226L228 217L225 219L224 214L221 214z"/>
<path style="fill:#7b4b8c; stroke:none;" d="M202 216L202 218L204 218L204 216L202 216z"/>
<path style="fill:#a793af; stroke:none;" d="M64.3333 219.667L64.6667 220.333L64.3333 219.667z"/>
<path style="fill:#d3d1d4; stroke:none;" d="M62.3333 222.667L62.6667 223.333L62.3333 222.667z"/>
<path style="fill:#b2adb4; stroke:none;" d="M230 225C233.272 234.971 240.067 251.078 248 258C245.045 247.738 239.089 231.186 230 225z"/>
<path style="fill:#a793af; stroke:none;" d="M57.3333 234.667L57.6667 235.333L57.3333 234.667z"/>
<path style="fill:#cdb6d9; stroke:none;" d="M217 237L218 235L223.284 259L236.242 294.715C238.535 300.204 240.61 312.72 248 311C248.964 315.497 252.669 312.712 255.583 315.333L259 323C266.084 306.119 255.421 283.363 252 267C249.818 273.084 253.92 279.309 255.675 285C258.284 293.461 258.927 303.182 259 312C255.604 305.636 258.596 295.376 252 291L248 303L246 303L235.028 285L225.389 253C223.727 248.752 223.928 237.842 220 237L222 235C219.054 234.254 217.689 233.803 217 237z"/>
<path style="fill:#b89cc5; stroke:none;" d="M218 235L218 240L215 240L217 258C220.69 262.242 221.939 269.46 222 275L225 275C226.334 291.332 233.912 304.293 243.041 317.424C245.283 320.65 249.939 333.768 255 328L257 336C263.903 335.462 263.536 329.817 264.075 324C265.088 313.057 262.428 303.592 260 293C256.735 300.782 260 314.402 260 323L255.428 315.027L248 311C240.732 311.644 238.526 299.447 236.242 293.83L223.334 258.09C221.233 250.502 222.147 241.998 218 235z"/>
<path style="fill:#a793af; stroke:none;" d="M52.3333 245.667L52.6667 246.333L52.3333 245.667z"/>
<path style="fill:#87658f; stroke:none;" d="M167 247C165.627 249.547 164.782 250.188 162 251C159.421 255.385 152.123 262.513 147 263C148.178 267.041 146.573 269.29 145 273L148 272L145 278C142.831 276.957 140.484 275.914 138.702 278.336C133.245 285.757 133.816 297.596 122 300C121.654 304.118 119.852 307.053 117 310C120.345 316.743 113.663 324.346 112 331L114 328C119.1 329.437 123.683 330.755 129 330L128 334C135.592 334.973 141.106 339.698 149 336L147 340C152.925 339.746 157.222 339.198 163 341C166.378 338.153 169.803 341.343 174 341C171.947 352.058 177.043 362.107 178 373L181 373L183 378C172.099 380.595 161.67 377.939 151.004 378.533L136 383L139 389L140 385L148 391L147 388L152 392L156 390L161 392C158.516 394.54 156.524 394.888 153 395L150 401L153 403L163 403L160 399C165.25 400.366 173.131 405.475 176 410C188.729 408.382 199.033 407.977 212 409L212 406C222.444 405.993 226.159 398.711 235.289 396.914L245 398C241.352 395.081 236.615 393.565 232 393C233.371 386.321 233.747 376.404 238 371C230.859 368.005 223.695 372.801 216.83 374.548L190 378L197 373L195 371L200 368L199 365L203 364L197 363C197.957 357.982 201.56 347.326 197 344C199.362 336.425 206.916 334.28 208 326C214.424 325.792 216.372 322.906 218 317C220.107 320.944 220.651 324.769 219 329L223 330C221.639 316.33 215.969 301.057 209.424 289C207.004 284.544 205.074 278.676 200 277L202 273C198.201 270.585 196.762 268.56 197 264L191 264C190.373 261.064 189.853 259.987 187 259L191 253C185.127 255.178 180.12 252.127 174 252L178 248L167 247z"/>
<path style="fill:#59366a; stroke:none;" d="M148.667 249.333L149.333 249.667L148.667 249.333z"/>
<path style="fill:#573873; stroke:none;" d="M199 249C197.878 251.66 197.606 252.334 200 254L199 249z"/>
<path style="fill:#b2adb4; stroke:none;" d="M49.3333 252.667L49.6667 253.333L49.3333 252.667z"/>
<path style="fill:#a793af; stroke:none;" d="M46.3333 260.667L46.6667 261.333L46.3333 260.667M86 278C85.6575 281.894 79.8591 289.786 82 292L80 300C82.8496 301.556 83.5031 302.793 84 306C90.4051 303.706 95.0453 291.979 92 286C99.2548 285.5 101.405 285.254 108 282C107.833 284.277 107.801 284.685 106 286L110 289L110 291L108 293L111 296L115 295C113.794 292.987 113.247 292.176 114 290C111.662 282.688 110.031 277.538 111 270L108 273L107.656 267C105.893 259.609 96.383 259.546 92.7832 265.444L90.6481 274.852L86 278z"/>
<path style="fill:#b2adb4; stroke:none;" d="M45.3333 262.667L45.6667 263.333L45.3333 262.667z"/>
<path style="fill:#cdb6d9; stroke:none;" d="M251.333 262.667L251.667 263.333L251.333 262.667z"/>
<path style="fill:#b2adb4; stroke:none;" d="M44.3333 265.667L44.6667 266.333L44.3333 265.667M42.3333 270.667L42.6667 271.333L42.3333 270.667z"/>
<path style="fill:#d3d1d4; stroke:none;" d="M254.333 270.667L254.667 271.333L254.333 270.667z"/>
<path style="fill:#93699f; stroke:none;" d="M170 271L170 278L166 277L167 275C164.671 274.039 165.042 277.037 165 279C161.264 276.558 157.733 279.296 154 281L158 274L148 280L149 277L145 279C147.281 284.086 143.73 291.492 143 297C150.044 296.418 152.6 299.605 150 306C154.83 307.19 181.685 309.711 176 320L179 325L183 321L186 322C187.614 319.098 188.808 317.933 192 317L190 313C191.858 310.351 191.965 308.214 192 305L197 304L195 301L199 300L197 296C201.509 295.853 204.741 295.073 204 290L200 292L202 280L198 282L199 279L195 279L197 276C194.962 275.321 194.661 275.506 196 274C192.562 273.276 190.213 276.426 193 279L192 284L178 287L182 281L175 280C174.789 277.261 174.697 276.578 172 276L174 271L170 271z"/>
<path style="fill:#b2adb4; stroke:none;" d="M41.3333 273.667L41.6667 274.333L41.3333 273.667M40.3333 276.667L40.6667 277.333L40.3333 276.667M39.3333 279.667L39.6667 280.333L39.3333 279.667M38.3333 282.667L38.6667 283.333L38.3333 282.667z"/>
<path style="fill:#b89cc5; stroke:none;" d="M92 286C94.3049 292.505 89.9117 302.482 84 306C84.1135 311.499 83.3585 321.739 91 320L89 318L93 311L92 308L96 307C94.3344 304.62 92.8771 304.318 90 304C91.4344 299.167 96.3138 297.365 96 292L103 290L101 298L105 296L107 300C110.485 298.907 112.668 297.831 115 295L111 296C110.518 293.636 110.364 293.482 108 293L110 291L110 289L106 287C108.465 285.344 108.615 284.903 108 282L92 286z"/>
<path style="fill:#b2adb4; stroke:none;" d="M258.333 282.667L258.667 283.333L258.333 282.667M37.3333 285.667L37.6667 286.333L37.3333 285.667M36.3333 288.667L36.6667 289.333L36.3333 288.667z"/>
<path style="fill:#cdb6d9; stroke:none;" d="M260.333 288.667L260.667 289.333L260.333 288.667z"/>
<path style="fill:#b2adb4; stroke:none;" d="M96 292L90 304L96 307L92 308L93 311C90.2922 312.895 89.712 314.801 89 318L94 316L94 320L101 319L100 312C106.216 310.668 107.72 300.904 105 296L101 298L103 290L96 292M35.3333 291.667L35.6667 292.333L35.3333 291.667z"/>
<path style="fill:#59366a; stroke:none;" d="M45 293L43 301C46.4983 299.072 46.8746 296.878 47 293L45 293z"/>
<path style="fill:#d3d1d4; stroke:none;" d="M262.333 294.667L262.667 295.333L262.333 294.667z"/>
<path style="fill:#b2adb4; stroke:none;" d="M34 295L34 298L34 295z"/>
<path style="fill:#a793af; stroke:none;" d="M100 312L101 319L94 320L94 316C91.3998 317.72 91.4758 318.966 92 322L88 324L89 321C84.1219 318.31 84.4047 312.128 84 307C80.7592 309.643 79.6666 311.808 80 316L77 319C78.8012 320.315 78.8328 320.723 79 323L81 323L81 330L86 329C86.6745 332.854 88.2475 333.289 92 333L87 340C91.4681 339.322 94.5832 337.392 96 333C105.578 334.526 108.727 325.417 112.239 318.17C113.967 314.603 116.654 310.124 113 307L113 298C105.631 300.387 105.917 308.29 100 312z"/>
<path style="fill:#b2adb4; stroke:none;" d="M33.3333 299.667L33.6667 300.333L33.3333 299.667z"/>
<path style="fill:#cdb6d9; stroke:none;" d="M263.333 299.667L263.667 300.333L263.333 299.667z"/>
<path style="fill:#d3d1d4; stroke:none;" d="M264.333 302.667L264.667 303.333L264.333 302.667z"/>
<path style="fill:#b2adb4; stroke:none;" d="M32 303L32 306L32 303z"/>
<path style="fill:#a793af; stroke:none;" d="M118 304L117 308L120 304L118 304z"/>
<path style="fill:#d3d1d4; stroke:none;" d="M31 306L31 309L31 306z"/>
<path style="fill:#635e66; stroke:none;" d="M37 310C35.9901 313.03 36.0767 313.519 34 313C34.9763 318.504 35.1987 324.892 31 329L29.9961 362C30.0448 366.088 28.7168 372.131 32 375C30.2573 380.352 30.3268 404.082 37 405L49 439C51.1362 433.859 48.0935 428.97 46.5903 424C43.5152 413.833 37.8763 401.671 38 391L34 393C33.6543 376.251 33.6989 357.913 39 342L40 345L46 335L43 332L37 334C38.0578 327.594 39.3389 315.99 37 310z"/>
<path style="fill:#7b4b8c; stroke:none;" d="M42 313L38 312L37 334L43 332C43.4825 334.364 43.636 334.518 46 335L41 345L40 342C35.4269 347.016 37.2212 350.84 36.561 357C35.3185 368.591 39.3024 371.099 42.8256 381.04C47.2817 393.613 48.8344 402.904 58.8449 412.867L77 426L79 426C86.3846 418.8 100.129 416.355 110 414.866C137.111 410.774 167.884 411.752 195 416.194L214.004 422.512C225.14 422.649 246.904 405.696 245 394C250.512 390.813 253.336 382.647 256 377L253 378C252.482 374.668 250.869 364.082 246.941 363.451L235 368L242 350L244 354C245.739 348.657 237.241 331.563 233 328L234 325L229 323L228 332C226.427 328.3 226.546 324.975 227 321C222.48 321.969 224.321 326.406 225 330L219 329C221.168 325.367 220.177 320.947 219 317C215.342 321.504 214.614 325.509 208 326C206.182 333.921 198.71 336.231 197 344C200.869 348.713 197.566 357.235 197 363L203 363L199 365L200 368L195 370L197 373C193.801 374.086 192.089 375.348 190 378L216.83 374.755L238 370C233.856 375.695 232.844 386.077 232 393L245 397L234.439 396.769C225.583 399.312 222.109 405.972 212 406L212 409C199.126 407.373 188.599 407.618 176 410C174.171 401.465 159.855 401.185 153 403L150 401L153 395C156.536 394.959 158.998 395.089 161 392L156 390L152 392C151.161 389.115 149.885 388.711 147 388L148 391C145.281 388.022 144.272 385.628 140 385L140 389L136 383L145 381L134 381.856C121.895 382.919 110.649 380.966 109 368C110.672 368.338 110.31 368.537 111 367C115.791 368.416 121.844 369.364 124 364C136.382 366.982 149.36 366 162 366L160 370L168 370L168 372L162 372L162 374L170 374C166.39 378.337 161.426 378.767 156 379C162.591 381.766 176.231 380.001 183 378L181 373L178 373C177.497 362.01 172.602 352.07 174 341C169.764 341.135 165.777 336.831 163 341C157.37 338.615 152.892 339.535 147 340L149 336L147 338L128 334L129 330L114 328L106 348L102 348C98.9681 344.606 95.1452 347.928 92.0008 349.915L73 366L74 358L71 356C68.5083 356.97 67.8544 357.475 67 360C65.8301 353.567 60.4106 347.266 62 341L54 341L53 330L51 332L49 331C50.5676 327.277 52.1028 322.214 49 319L51 317L51 315L49 313L52 312L48 310L45 317L43 317L42 314C44.8508 313.386 44.8544 312.697 44 310L42 313z"/>
<path style="fill:#cdb6d9; stroke:none;" d="M30.3333 312.667L30.6667 313.333L30.3333 312.667z"/>
<path style="fill:#d3d1d4; stroke:none;" d="M266.333 312.667L266.667 313.333L266.333 312.667M29 317L29 320L29 317z"/>
<path style="fill:#b2adb4; stroke:none;" d="M29.3333 320.667L29.6667 321.333L29.3333 320.667z"/>
<path style="fill:#cdb6d9; stroke:none;" d="M88 324L92 320L88 324M267 320L267 323L267 320M28 325L28 330L28 325z"/>
<path style="fill:#a793af; stroke:none;" d="M58 327L58 329L60 329L60 327L58 327z"/>
<path style="fill:#b2adb4; stroke:none;" d="M268 328L268 332L268 328z"/>
<path style="fill:#a793af; stroke:none;" d="M28 330L28 335L28 330z"/>
<path style="fill:#e4cded; stroke:none;" d="M27 334L27 342C28.1614 339.23 28.1614 336.77 27 334z"/>
<path style="fill:#d3d1d4; stroke:none;" d="M269 336L269 355C271.02 350.187 271.02 340.813 269 336z"/>
<path style="fill:#93699f; stroke:none;" d="M186 339L185 344C180.52 344.958 180.916 349.219 182 353L177 353L181 354C176.301 357.553 177.586 361.708 178 367L183 367L181 371C186.416 370.155 189.877 368.16 192 363C188.791 361.013 188.69 358.901 191 356L190 351L186 351L191 345L189 339L186 339z"/>
<path style="fill:#b2adb4; stroke:none;" d="M27 342L27 355C28.5909 351.209 28.5909 345.791 27 342z"/>
<path style="fill:#87658f; stroke:none;" d="M42 350L42 357L45 355L44 350L42 350z"/>
<path style="fill:#573873; stroke:none;" d="M242 350L235 368L248 363C247.668 357.845 245.637 353.651 242 350z"/>
<path style="fill:#d3d1d4; stroke:none;" d="M27 355L27 366C28.4309 362.59 28.4309 358.41 27 355z"/>
<path style="fill:#87658f; stroke:none;" d="M264 355L263 362L263 356L261 356L256 374L261 363C263.006 364.156 262.803 364.629 264 363L265 370C268.024 365.548 266.216 359.574 264 355z"/>
<path style="fill:#e4cded; stroke:none;" d="M269 355L269 363C270.161 360.23 270.161 357.77 269 355z"/>
<path style="fill:#635e66; stroke:none;" d="M267 358L266 370L265 363C263.152 364.078 263.034 363.949 261 363L256 376L264 375C264 382.738 264.124 389.769 261 397C265.333 395.733 265.158 390.999 265.745 387C266.975 378.633 270.848 365.969 267 358z"/>
<path style="fill:#93699f; stroke:none;" d="M44 362L44 365L46 365L46 362L44 362z"/>
<path style="fill:#403057; stroke:none;" d="M96 367C98.7386 366.789 99.422 366.697 100 364L96 367z"/>
<path style="fill:#59366a; stroke:none;" d="M124 364C120.955 368.965 116.149 368.226 111 367C110.274 369.179 110.561 368.78 109 368C110.649 388.86 135.742 380.175 150 378.843C156.617 378.226 166.18 380.933 170 374L162 374L162 372L168 372L168 370L160 370L162 366C149.189 366 136.646 366.356 124 364z"/>
<path style="fill:#7b4b8c; stroke:none;" d="M183 364L183 366L185 366L185 364L183 364z"/>
<path style="fill:#a793af; stroke:none;" d="M28 368L28 371L28 368z"/>
<path style="fill:#403057; stroke:none;" d="M34 368C32.0052 376.379 33.6381 384.572 34 393L38 391C37.8292 395.614 41.1476 397.922 45 400C42.0347 410.127 49.9699 423.097 50 434C53.2836 433.625 54.8809 433.193 56 430L60 430L57 434L63 434L62 438L64 443L59 444C65.7826 459.541 76.9109 473.211 95 474C92.9248 471.273 90.3236 471.154 87 471C86.5195 467.176 79.5565 466.91 76 466C75.2997 461.835 72.6514 459.093 69 457C70.2197 453.341 63.9473 446.189 63 446C69.4178 444.104 72.9357 447.105 79.0147 448.032L104 449C138.323 449 173.115 445.079 207 448C204.487 450.636 202.621 451.596 199 452C203.616 453.936 211.488 454.07 216 452L214 461C211.453 462.373 210.812 463.218 210 466L222 466C222.179 458.077 225.544 449.783 232 445L229 443C235.225 437.935 237.96 436.12 236 428C239.347 426.652 240.215 425.005 238 422C240.817 417.98 240.792 411.855 241 407C229.492 410.23 223.833 424.223 212 428C209.574 414.672 190.842 414.983 180 415L116 415.09L86 420L83 430L101.001 427.044L176 427C172.96 424.697 169.732 425.003 166 425C172.791 421.737 184.533 423.207 191.999 424.287C194.85 424.699 200.301 425.813 198.168 429.915C193.825 438.267 178.271 440.986 170 441C145.452 441.041 120.185 443.423 96 439L101 438L89.0903 436.007C80.4458 432.995 76.8972 430 67 430L74 435L64 432L65 429L56 427L59 426L58 423L68 422L47.4236 397.015C42.8511 388.301 41.2081 374.589 34 368z"/>
<path style="fill:#87658f; stroke:none;" d="M79 369C77.0117 371.849 77.0479 373.686 78 377L70 376C68.4319 381.88 74.1763 387.278 70 392L70 388L66 388L68 391L61 388C61.2306 384.587 61.9879 382.059 59 380L60 383C56.7613 385.098 56.8698 388.403 56 392L60 391C61.0184 395.249 63.6539 404.231 67.2785 406.756L78 408.143C89.1531 410.281 99.8295 410.89 111 408L91.0903 406.721L75 400L72 393L79 394L82 390L79 386L75 387L77 383L74 382L74 379L87 378L86 371C82.8624 371.093 81.3003 371.176 79 369z"/>
<path style="fill:#cdb6d9; stroke:none;" d="M28 371L28 374L28 371z"/>
<path style="fill:#87658f; stroke:none;" d="M130 373L134 374L130 373z"/>
<path style="fill:#573873; stroke:none;" d="M39 375C39.7181 380.532 41.3601 388.519 46 392C44.8347 386.076 43.7872 379.03 39 375z"/>
<path style="fill:#403057; stroke:none;" d="M129 375C130.285 378.205 131.602 378.732 135 379C133.881 375.807 132.284 375.375 129 375z"/>
<path style="fill:#4e4857; stroke:none;" d="M256 379L262 378L261 396C265.368 390.449 264 381.711 264 375C260.065 375.047 257.343 374.954 256 379z"/>
<path style="fill:#a793af; stroke:none;" d="M29 376L29 379L29 376z"/>
<path style="fill:#7b4b8c; stroke:none;" d="M126 376C126.482 378.364 126.636 378.518 129 379L128 376L126 376z"/>
<path style="fill:#a793af; stroke:none;" d="M267 376L267 379L267 376z"/>
<path style="fill:#93699f; stroke:none;" d="M74 379L74 382L77 383L75 387L79 386L82 390L79 394L77 392L72 393L75 400C84.225 402.057 105.13 415.495 113 404L103 391L99 391L104 390L97 384L99 381L95 381L96 379L89 381C85.6299 375.494 79.2394 377.354 74 379z"/>
<path style="fill:#2a2630; stroke:none;" d="M248 398C261.657 398 264.216 391.431 262 378C253.256 378.484 249.476 390.339 248 398z"/>
<path style="fill:#cdb6d9; stroke:none;" d="M29 379L29 382L29 379z"/>
<path style="fill:#d3d1d4; stroke:none;" d="M267.333 379.667L267.667 380.333L267.333 379.667z"/>
<path style="fill:#403057; stroke:none;" d="M151 380L155 384L151 380z"/>
<path style="fill:#573873; stroke:none;" d="M254 380L245 394C245.142 398.434 242.761 401.101 241 405C246.889 400.716 255.275 387.614 254 380z"/>
<path style="fill:#87658f; stroke:none;" d="M112 381L115 389L110 390L110 394C114.879 392.655 116.682 389.783 122 391L117 397C121.54 397.449 125.37 399.638 128 395L132 397C132.824 392.479 132.356 389.356 131 385L129 393L123 387C118.037 387.547 115.256 384.402 112 381z"/>
<path style="fill:#a793af; stroke:none;" d="M266 381L266 384L266 381z"/>
<path style="fill:#59366a; stroke:none;" d="M148 382L148 384L150 384L150 382L148 382z"/>
<path style="fill:#a793af; stroke:none;" d="M30 384L30 387L30 384z"/>
<path style="fill:#cdb6d9; stroke:none;" d="M266 384L266 387L266 384z"/>
<path style="fill:#59366a; stroke:none;" d="M151 385L151 387L153 387L153 385L151 385z"/>
<path style="fill:#a793af; stroke:none;" d="M265.333 388.667L265.667 389.333L265.333 388.667M31 389L31 392L31 389z"/>
<path style="fill:#59366a; stroke:none;" d="M126 389L129 393L130 390L126 389z"/>
<path style="fill:#cdb6d9; stroke:none;" d="M265.333 390.667L265.667 391.333L265.333 390.667z"/>
<path style="fill:#59366a; stroke:none;" d="M142 391L145 393L142 391z"/>
<path style="fill:#b2adb4; stroke:none;" d="M32.3333 394.667L32.6667 395.333L32.3333 394.667M264.333 394.667L264.667 395.333L264.333 394.667z"/>
<path style="fill:#59366a; stroke:none;" d="M145 395L145 398L149 398L149 395L145 395z"/>
<path style="fill:#d3d1d4; stroke:none;" d="M32.3333 396.667L32.6667 397.333L32.3333 396.667z"/>
<path style="fill:#4e4857; stroke:none;" d="M39 396C39.9323 407.797 44.8582 420.891 49 432C53.3336 421.575 42.5754 410.556 45 400L39 396M247 396C245.827 400.179 243.499 402.507 240 405C240.917 410.554 240.78 417.001 238 422C239.305 425.216 238.944 426.148 236 428C236.829 436.169 234.215 437.074 229 443L232 444C225.617 449.438 221.724 457.553 222 466L218 467L219 471L225 469L224 466C243.195 453.064 251.061 420.874 252 399L257 399L247 396z"/>
<path style="fill:#d3d1d4; stroke:none;" d="M264.333 396.667L264.667 397.333L264.333 396.667z"/>
<path style="fill:#87658f; stroke:none;" d="M260 397C255.6 412.234 249.731 428.695 242.36 442.91C238.578 450.204 231.49 455.746 230 464C249.612 454.778 257.721 420.352 261 401L263 402L264 397L260 397z"/>
<path style="fill:#635e66; stroke:none;" d="M252 399C250.664 415.927 243.369 429.81 240 446C243.705 443.284 245.032 438.083 246.941 434L260 398L252 399z"/>
<path style="fill:#59366a; stroke:none;" d="M160 399L165 402C163.554 399.717 162.689 399.418 160 399z"/>
<path style="fill:#b2adb4; stroke:none;" d="M263 399L263 402L263 399z"/>
<path style="fill:#d3d1d4; stroke:none;" d="M33.3333 400.667L33.6667 401.333L33.3333 400.667z"/>
<path style="fill:#a793af; stroke:none;" d="M261 401L255 425C258.361 419.938 264.5 406.456 261 401z"/>
<path style="fill:#d3d1d4; stroke:none;" d="M34.3333 404.667L34.6667 405.333L34.3333 404.667M262.333 404.667L262.667 405.333L262.333 404.667z"/>
<path style="fill:#87658f; stroke:none;" d="M36 405C34.0015 417.47 46.6315 442.063 55 451L49.0895 437C44.7796 426.695 42.189 414.322 36 405z"/>
<path style="fill:#59366a; stroke:none;" d="M144 407L144 410L146 407L144 407z"/>
<path style="fill:#d3d1d4; stroke:none;" d="M35.3333 408.667L35.6667 409.333L35.3333 408.667M261.333 408.667L261.667 409.333L261.333 408.667M260.333 410.667L260.667 411.333L260.333 410.667z"/>
<path style="fill:#cdb6d9; stroke:none;" d="M36 412L37 413L36 412z"/>
<path style="fill:#573873; stroke:none;" d="M99 416C105.458 418.704 114.116 415.034 121 415.001L180 415L163 413.83C141.134 411.749 120.595 415.073 99 416z"/>
<path style="fill:#d3d1d4; stroke:none;" d="M37.3333 414.667L37.6667 415.333L37.3333 414.667M259.333 414.667L259.667 415.333L259.333 414.667M38.3333 417.667L38.6667 418.333L38.3333 417.667z"/>
<path style="fill:#59366a; stroke:none;" d="M64 417C72.6246 428.991 86.5317 437 101 437L96 438C101.567 441.803 111.309 439.337 117.961 440.129C143.164 443.13 166.284 440.87 191 437C182.546 433.453 170.969 439.568 162 439.961C141.421 440.862 123.923 437.815 104 435L106 433L97 433L102 430C96.689 427.792 88.804 430 83 430L86 422C82.9185 422.747 80.808 423.356 79 426L77 426C74.7458 422.098 68.0863 418.708 64 417z"/>
<path style="fill:#d3d1d4; stroke:none;" d="M258.333 417.667L258.667 418.333L258.333 417.667z"/>
<path style="fill:#573873; stroke:none;" d="M210 421L212 428C217.669 426.903 222.391 423.433 226 419C220.073 419.321 215.868 423.169 210 421z"/>
<path style="fill:#d3d1d4; stroke:none;" d="M39.3333 420.667L39.6667 421.333L39.3333 420.667z"/>
<path style="fill:#2a2630; stroke:none;" d="M58 423C58.2162 425.45 58.4358 425.686 56 426C62.7197 430.111 70.3878 430 78 430C71.6877 422.728 67.0035 422.289 58 423z"/>
<path style="fill:#d3d1d4; stroke:none;" d="M256.333 422.667L256.667 423.333L256.333 422.667z"/>
<path style="fill:#573873; stroke:none;" d="M166 424L176 426C167.72 428.448 157.607 427 149 427L117 427.91C110.706 427.479 98.223 424.023 94 430L102 429L97 433C98.4202 432.738 107.39 431.881 104 434C117.355 442.595 137.822 440.704 153 440.039C161.775 439.655 170.507 440.079 179 437.38C185.151 435.425 195.589 437.187 198.863 429.915C200.885 425.426 195.024 424.536 191.999 424.156C183.988 423.15 173.85 422.132 166 424z"/>
<path style="fill:#d3d1d4; stroke:none;" d="M41.3333 425.667L41.6667 426.333L41.3333 425.667M254.333 427.667L254.667 428.333L254.333 427.667z"/>
<path style="fill:#4e4857; stroke:none;" d="M56 430C54.4267 432.719 53.0751 433.373 50 434C50.1528 447.704 67.2585 469.11 81 471L66.4599 456.675C63.0289 451.661 61.7215 445.093 55 444C55.651 438.875 56.15 434.674 60 431L56 430z"/>
<path style="fill:#573873; stroke:none;" d="M64 430C66.2138 433.902 69.6089 435.516 74 436C71.1336 433.022 68.0102 431.032 64 430z"/>
<path style="fill:#d3d1d4; stroke:none;" d="M44.3333 432.667L44.6667 433.333L44.3333 432.667z"/>
<path style="fill:#573873; stroke:none;" d="M55 444L64 443C63.832 440.597 63.8031 439.54 62 438L63 434C55.7831 433.044 55.4876 437.831 55 444M77 440L83 443C81.3253 440.779 79.7434 440.438 77 440z"/>
<path style="fill:#b2adb4; stroke:none;" d="M49 442L50 443L49 442M50 444L51 445L50 444z"/>
<path style="fill:#2a2630; stroke:none;" d="M63 445L64 448L69 457C71.9161 459.525 74.8924 462.258 76 466C79.2836 467.228 86.4544 467.276 87 471L100.015 474.812L134 476.09C161.298 477.959 192.6 479.372 219 471C218.722 468.988 218.351 468.085 220 467L210 466L214 461L216 452L199 453C202.483 451.769 204.936 451.179 207 448C186.357 444.423 166.658 449 146 449L87 448.91L63 445z"/>
<path style="fill:#cdb6d9; stroke:none;" d="M53 449L54 450L53 449z"/>
<path style="fill:#635e66; stroke:none;" d="M55 450C57.9552 457.683 64.1155 463.694 71 468C68.3354 461.724 61.0803 453.088 55 450z"/>
<path style="fill:#cdb6d9; stroke:none;" d="M242 450L243 451L242 450z"/>
<path style="fill:#b2adb4; stroke:none;" d="M56 453L57 454L56 453z"/>
<path style="fill:#cdb6d9; stroke:none;" d="M240 453L241 454L240 453M58 456L59 457L58 456z"/>
<path style="fill:#b2adb4; stroke:none;" d="M59 457L60 458L59 457z"/>
<path style="fill:#cdb6d9; stroke:none;" d="M237 457L238 458L237 457z"/>
<path style="fill:#635e66; stroke:none;" d="M224 468C228.388 466.728 229.673 464.22 231 460C227.38 461.794 225.565 464.304 224 468z"/>
<path style="fill:#b2adb4; stroke:none;" d="M230 464L231 465L230 464z"/>
<path style="fill:#a793af; stroke:none;" d="M67 465L68 466L67 465z"/>
<path style="fill:#cdb6d9; stroke:none;" d="M229 465L230 466L229 465z"/>
<path style="fill:#a793af; stroke:none;" d="M68 466L69 467L68 466z"/>
<path style="fill:#b2adb4; stroke:none;" d="M228 466L229 467L228 466M69 467L70 468L69 467M227 467L228 468L227 467z"/>
<path style="fill:#635e66; stroke:none;" d="M71.6667 468.333L72.3333 468.667L71.6667 468.333z"/>
<path style="fill:#a793af; stroke:none;" d="M225 468L226 469L225 468z"/>
<path style="fill:#cdb6d9; stroke:none;" d="M73 469L74 470L73 469z"/>
<path style="fill:#a793af; stroke:none;" d="M76.6667 470.333L77.3333 470.667L76.6667 470.333M221 470L222 471L221 470z"/>
<path style="fill:#87658f; stroke:none;" d="M80.6667 471.333L81.3333 471.667L80.6667 471.333z"/>
<path style="fill:#a793af; stroke:none;" d="M217.667 471.333L218.333 471.667L217.667 471.333z"/>
<path style="fill:#93699f; stroke:none;" d="M84.6667 472.333L85.3333 472.667L84.6667 472.333z"/>
<path style="fill:#b2adb4; stroke:none;" d="M214.667 472.333L215.333 472.667L214.667 472.333z"/>
<path style="fill:#a793af; stroke:none;" d="M88.6667 473.333L89.3333 473.667L88.6667 473.333z"/>
<path style="fill:#635e66; stroke:none;" d="M208 473L211 474L208 473z"/>
<path style="fill:#d3d1d4; stroke:none;" d="M211.667 473.333L212.333 473.667L211.667 473.333M91 474L94 475L91 474z"/>
<path style="fill:#87658f; stroke:none;" d="M94.6667 474.333L95.3333 474.667L94.6667 474.333z"/>
<path style="fill:#4e4857; stroke:none;" d="M96.6667 474.333L97.3333 474.667L96.6667 474.333z"/>
<path style="fill:#635e66; stroke:none;" d="M203 474L206 475L203 474z"/>
<path style="fill:#d3d1d4; stroke:none;" d="M206.667 474.333L207.333 474.667L206.667 474.333z"/>
<path style="fill:#cdb6d9; stroke:none;" d="M98.6667 475.333L99.3333 475.667L98.6667 475.333z"/>
<path style="fill:#a793af; stroke:none;" d="M100.667 475.333L101.333 475.667L100.667 475.333z"/>
<path style="fill:#87658f; stroke:none;" d="M102.667 475.333L103.333 475.667L102.667 475.333z"/>
<path style="fill:#4e4857; stroke:none;" d="M104 475L108 476L104 475M196.667 475.333L197.333 475.667L196.667 475.333z"/>
<path style="fill:#87658f; stroke:none;" d="M198.667 475.333L199.333 475.667L198.667 475.333z"/>
<path style="fill:#b89cc5; stroke:none;" d="M200 475L203 476L200 475z"/>
<path style="fill:#cdb6d9; stroke:none;" d="M109 476L112 477L109 476z"/>
<path style="fill:#a793af; stroke:none;" d="M112 476L115 477L112 476z"/>
<path style="fill:#635e66; stroke:none;" d="M115 476L122 477L115 476z"/>
<path style="fill:#403057; stroke:none;" d="M122 476C126.724 477.982 132.91 477 138 477C133.276 475.018 127.09 476 122 476z"/>
<path style="fill:#4e4857; stroke:none;" d="M176 476L180 477L176 476z"/>
<path style="fill:#87658f; stroke:none;" d="M180 476L192 477L180 476z"/>
<path style="fill:#b2adb4; stroke:none;" d="M192 476L195 477L192 476z"/>
<path style="fill:#e4cded; stroke:none;" d="M122 477L128 478L122 477M129 477L138 478L129 477z"/>
<path style="fill:#cdb6d9; stroke:none;" d="M138 477C145.409 480.109 156.975 478 165 478C157.591 474.891 146.025 477 138 477z"/>
<path style="fill:#e4cded; stroke:none;" d="M165 477L176 478L165 477z"/>
  </g>
</defs>
</svg>
